<?xml version="1.0" standalone="no"?>
<!DOCTYPE svg PUBLIC "-//W3C//DTD SVG 20010904//EN"
 "http://www.w3.org/TR/2001/REC-SVG-20010904/DTD/svg10.dtd">
<svg version="1.0" xmlns="http://www.w3.org/2000/svg"
width="20" height="20"  viewBox="0 0 512.000000 512.000000"
 preserveAspectRatio="xMidYMid meet">

<g transform="translate(0.000000,512.000000) scale(0.100000,-0.100000)"
fill="#000000" stroke="none">
<path d="M1430 4889 c-429 -51 -790 -344 -926 -752 -50 -151 -53 -193 -54
-749 l0 -516 -42 -21 c-87 -42 -157 -132 -177 -229 -6 -29 -11 -134 -11 -232
l0 -180 -76 0 c-41 0 -84 -5 -95 -10 -50 -27 -49 0 -49 -989 l0 -921 29 -32
29 -33 370 -3 c310 -2 376 0 406 12 32 13 43 31 128 200 l93 186 1505 0 1505
0 93 -186 c85 -169 96 -187 128 -200 30 -12 96 -14 406 -12 l370 3 29 33 29
32 0 921 c0 989 1 962 -49 989 -11 5 -54 10 -95 10 l-76 0 0 183 c0 199 -12
273 -54 337 -34 52 -84 97 -133 121 l-43 21 0 513 c0 406 -3 530 -15 596 -77
440 -413 789 -860 892 -88 20 -115 21 -1190 23 -605 1 -1134 -2 -1175 -7z
m2349 -217 c347 -92 604 -361 675 -704 13 -65 16 -160 16 -583 l0 -505 -120 0
-120 0 0 448 c0 483 -6 573 -44 682 -53 154 -183 299 -330 370 -151 72 -110
70 -1296 70 -1186 0 -1145 2 -1296 -70 -147 -71 -277 -216 -330 -370 -38 -109
-44 -199 -44 -682 l0 -448 -120 0 -121 0 3 538 c4 522 4 539 26 610 111 364
399 613 767 662 33 4 553 7 1155 6 l1095 -2 84 -22z m-128 -432 c197 -38 345
-199 370 -402 5 -47 8 -271 7 -518 l-3 -435 -247 -3 -248 -2 0 319 c0 327 -6
393 -40 462 -26 49 -93 114 -148 141 l-47 23 -735 0 -735 0 -47 -23 c-63 -31
-126 -96 -157 -162 l-26 -55 -3 -353 -3 -352 -247 2 -247 3 -3 435 c-3 495 3
570 49 668 59 123 190 226 320 251 64 13 2124 13 2190 1z m-372 -636 c17 -14
35 -42 41 -62 7 -24 10 -148 8 -347 l-3 -310 -765 0 -765 0 -3 310 c-2 199 1
323 8 347 6 20 24 48 41 62 l31 26 688 0 688 0 31 -26z m1376 -957 c42 -42 47
-75 43 -277 l-3 -155 -2135 0 -2135 0 -3 155 c-4 202 1 235 43 277 l33 33
2062 0 2062 0 33 -33z m265 -837 l0 -200 -971 0 c-646 0 -977 -3 -990 -10 -24
-13 -49 -61 -49 -94 0 -14 13 -40 29 -58 l29 -33 976 -3 976 -2 0 -495 0 -495
-265 0 -265 0 -90 179 c-49 99 -99 189 -112 200 l-22 21 -1606 0 -1606 0 -22
-21 c-13 -11 -63 -101 -112 -200 l-90 -179 -265 0 -265 0 0 495 0 495 976 2
976 3 29 33 c16 18 29 44 29 58 0 33 -25 81 -49 94 -13 7 -344 10 -990 10
l-971 0 0 200 0 200 2360 0 2360 0 0 -200z"/>
<path d="M2507 1599 c-22 -13 -47 -61 -47 -93 0 -14 13 -40 29 -58 24 -27 36
-33 71 -33 35 0 47 6 71 33 16 18 29 44 29 58 0 33 -25 81 -49 94 -25 13 -81
12 -104 -1z"/>
</g>
</svg>
